<?xml version="1.0" encoding="UTF-8" standalone="no"?>
<!DOCTYPE svg PUBLIC "-//W3C//DTD SVG 1.1//EN"
 "http://www.w3.org/Graphics/SVG/1.1/DTD/svg11.dtd">
<!-- Generated by graphviz version 2.40.1 (20161225.0304)
 -->
<!-- Title: Tree Pages: 1 -->
<svg width="1000pt" height="704pt"
 viewBox="0.00 0.00 999.85 703.60" xmlns="http://www.w3.org/2000/svg" xmlns:xlink="http://www.w3.org/1999/xlink">
<g id="graph0" class="graph" transform="scale(1 1) rotate(0) translate(4 699.6004)">
<title>Tree</title>
<polygon fill="#ffffff" stroke="transparent" points="-4,4 -4,-699.6004 995.8516,-699.6004 995.8516,4 -4,4"/>
<!-- 0 -->
<g id="node1" class="node">
<title>0</title>
<path fill="transparent" stroke="#000000" d="M623.9051,-695.7007C623.9051,-695.7007 511.9464,-695.7007 511.9464,-695.7007 505.9464,-695.7007 499.9464,-689.7007 499.9464,-683.7007 499.9464,-683.7007 499.9464,-618.3001 499.9464,-618.3001 499.9464,-612.3001 505.9464,-606.3001 511.9464,-606.3001 511.9464,-606.3001 623.9051,-606.3001 623.9051,-606.3001 629.9051,-606.3001 635.9051,-612.3001 635.9051,-618.3001 635.9051,-618.3001 635.9051,-683.7007 635.9051,-683.7007 635.9051,-689.7007 629.9051,-695.7007 623.9051,-695.7007"/>
<text text-anchor="start" x="522.4634" y="-680.4004" font-family="Helvetica,sans-Serif" font-size="14.00" fill="#000000">花瓣宽度 ≤ 0.8</text>
<text text-anchor="start" x="531.5347" y="-666.4004" font-family="Helvetica,sans-Serif" font-size="14.00" fill="#000000">gini = 0.664</text>
<text text-anchor="start" x="522.2036" y="-652.4004" font-family="Helvetica,sans-Serif" font-size="14.00" fill="#000000">samples = 105</text>
<text text-anchor="start" x="508.1865" y="-638.4004" font-family="Helvetica,sans-Serif" font-size="14.00" fill="#000000">value = [31, 37, 37]</text>
<text text-anchor="start" x="509" y="-618.8004" font-family="Helvetica,sans-Serif" font-size="14.00" fill="#000000">class = 变色鸢尾花</text>
</g>
<!-- 1 -->
<g id="node2" class="node">
<title>1</title>
<path fill="#e58139" stroke="#000000" d="M543.8321,-560.4015C543.8321,-560.4015 448.0195,-560.4015 448.0195,-560.4015 442.0195,-560.4015 436.0195,-554.4015 436.0195,-548.4015 436.0195,-548.4015 436.0195,-503.1991 436.0195,-503.1991 436.0195,-497.1991 442.0195,-491.1991 448.0195,-491.1991 448.0195,-491.1991 543.8321,-491.1991 543.8321,-491.1991 549.8321,-491.1991 555.8321,-497.1991 555.8321,-503.1991 555.8321,-503.1991 555.8321,-548.4015 555.8321,-548.4015 555.8321,-554.4015 549.8321,-560.4015 543.8321,-560.4015"/>
<text text-anchor="start" x="467.3208" y="-545.4003" font-family="Helvetica,sans-Serif" font-size="14.00" fill="#000000">gini = 0.0</text>
<text text-anchor="start" x="454.0967" y="-531.4003" font-family="Helvetica,sans-Serif" font-size="14.00" fill="#000000">samples = 31</text>
<text text-anchor="start" x="443.9727" y="-517.4003" font-family="Helvetica,sans-Serif" font-size="14.00" fill="#000000">value = [31, 0, 0]</text>
<text text-anchor="start" x="444" y="-497.8003" font-family="Helvetica,sans-Serif" font-size="14.00" fill="#000000">class = 山鸢尾花</text>
</g>
<!-- 0&#45;&gt;1 -->
<g id="edge1" class="edge">
<title>0&#45;&gt;1</title>
<path fill="none" stroke="#000000" d="M542.1355,-606.1539C535.2544,-594.1885 527.8308,-581.2797 520.9894,-569.3833"/>
<polygon fill="#000000" stroke="#000000" points="523.9093,-567.4397 515.8899,-560.5157 517.8411,-570.9294 523.9093,-567.4397"/>
<text text-anchor="middle" x="509.3783" y="-580.4528" font-family="Helvetica,sans-Serif" font-size="14.00" fill="#000000">True</text>
</g>
<!-- 2 -->
<g id="node3" class="node">
<title>2</title>
<path fill="transparent" stroke="#000000" d="M695.7774,-570.5006C695.7774,-570.5006 586.0741,-570.5006 586.0741,-570.5006 580.0741,-570.5006 574.0741,-564.5006 574.0741,-558.5006 574.0741,-558.5006 574.0741,-493.1 574.0741,-493.1 574.0741,-487.1 580.0741,-481.1 586.0741,-481.1 586.0741,-481.1 695.7774,-481.1 695.7774,-481.1 701.7774,-481.1 707.7774,-487.1 707.7774,-493.1 707.7774,-493.1 707.7774,-558.5006 707.7774,-558.5006 707.7774,-564.5006 701.7774,-570.5006 695.7774,-570.5006"/>
<text text-anchor="start" x="591.5703" y="-555.2004" font-family="Helvetica,sans-Serif" font-size="14.00" fill="#000000">花瓣宽度 ≤ 1.75</text>
<text text-anchor="start" x="612.3208" y="-541.2004" font-family="Helvetica,sans-Serif" font-size="14.00" fill="#000000">gini = 0.5</text>
<text text-anchor="start" x="599.0967" y="-527.2004" font-family="Helvetica,sans-Serif" font-size="14.00" fill="#000000">samples = 74</text>
<text text-anchor="start" x="585.0796" y="-513.2004" font-family="Helvetica,sans-Serif" font-size="14.00" fill="#000000">value = [0, 37, 37]</text>
<text text-anchor="start" x="582" y="-493.6003" font-family="Helvetica,sans-Serif" font-size="14.00" fill="#000000">class = 变色鸢尾花</text>
</g>
<!-- 0&#45;&gt;2 -->
<g id="edge2" class="edge">
<title>0&#45;&gt;2</title>
<path fill="none" stroke="#000000" d="M594.0743,-606.1539C599.1064,-597.5235 604.4246,-588.4024 609.6011,-579.5243"/>
<polygon fill="#000000" stroke="#000000" points="612.701,-581.1562 614.7145,-570.7545 606.6539,-577.6303 612.701,-581.1562"/>
<text text-anchor="middle" x="621.0816" y="-590.7301" font-family="Helvetica,sans-Serif" font-size="14.00" fill="#000000">False</text>
</g>
<!-- 3 -->
<g id="node4" class="node">
<title>3</title>
<path fill="#39e581" fill-opacity="0.862745" stroke="#000000" d="M536.7774,-445.3005C536.7774,-445.3005 427.0741,-445.3005 427.0741,-445.3005 421.0741,-445.3005 415.0741,-439.3005 415.0741,-433.3005 415.0741,-433.3005 415.0741,-367.8999 415.0741,-367.8999 415.0741,-361.8999 421.0741,-355.8999 427.0741,-355.8999 427.0741,-355.8999 536.7774,-355.8999 536.7774,-355.8999 542.7774,-355.8999 548.7774,-361.8999 548.7774,-367.8999 548.7774,-367.8999 548.7774,-433.3005 548.7774,-433.3005 548.7774,-439.3005 542.7774,-445.3005 536.7774,-445.3005"/>
<text text-anchor="start" x="432.5703" y="-430.0003" font-family="Helvetica,sans-Serif" font-size="14.00" fill="#000000">花瓣长度 ≤ 4.95</text>
<text text-anchor="start" x="445.5347" y="-416.0003" font-family="Helvetica,sans-Serif" font-size="14.00" fill="#000000">gini = 0.214</text>
<text text-anchor="start" x="440.0967" y="-402.0003" font-family="Helvetica,sans-Serif" font-size="14.00" fill="#000000">samples = 41</text>
<text text-anchor="start" x="429.9727" y="-388.0003" font-family="Helvetica,sans-Serif" font-size="14.00" fill="#000000">value = [0, 36, 5]</text>
<text text-anchor="start" x="423" y="-368.4002" font-family="Helvetica,sans-Serif" font-size="14.00" fill="#000000">class = 变色鸢尾花</text>
</g>
<!-- 2&#45;&gt;3 -->
<g id="edge3" class="edge">
<title>2&#45;&gt;3</title>
<path fill="none" stroke="#000000" d="M583.9722,-480.9538C571.9113,-471.4568 559.0956,-461.3655 546.7672,-451.6578"/>
<polygon fill="#000000" stroke="#000000" points="548.7707,-448.7806 538.7488,-445.3439 544.4402,-454.2803 548.7707,-448.7806"/>
</g>
<!-- 12 -->
<g id="node13" class="node">
<title>12</title>
<path fill="#8139e5" fill-opacity="0.968627" stroke="#000000" d="M799.7774,-445.3005C799.7774,-445.3005 662.0742,-445.3005 662.0742,-445.3005 656.0742,-445.3005 650.0742,-439.3005 650.0742,-433.3005 650.0742,-433.3005 650.0742,-367.8999 650.0742,-367.8999 650.0742,-361.8999 656.0742,-355.8999 662.0742,-355.8999 662.0742,-355.8999 799.7774,-355.8999 799.7774,-355.8999 805.7774,-355.8999 811.7774,-361.8999 811.7774,-367.8999 811.7774,-367.8999 811.7774,-433.3005 811.7774,-433.3005 811.7774,-439.3005 805.7774,-445.3005 799.7774,-445.3005"/>
<text text-anchor="start" x="681.5703" y="-430.0003" font-family="Helvetica,sans-Serif" font-size="14.00" fill="#000000">花瓣长度 ≤ 4.85</text>
<text text-anchor="start" x="694.5347" y="-416.0003" font-family="Helvetica,sans-Serif" font-size="14.00" fill="#000000">gini = 0.059</text>
<text text-anchor="start" x="689.0967" y="-402.0003" font-family="Helvetica,sans-Serif" font-size="14.00" fill="#000000">samples = 33</text>
<text text-anchor="start" x="678.9727" y="-388.0003" font-family="Helvetica,sans-Serif" font-size="14.00" fill="#000000">value = [0, 1, 32]</text>
<text text-anchor="start" x="658" y="-368.4002" font-family="Helvetica,sans-Serif" font-size="14.00" fill="#000000">class = 维吉尼亚鸢尾花</text>
</g>
<!-- 2&#45;&gt;12 -->
<g id="edge12" class="edge">
<title>2&#45;&gt;12</title>
<path fill="none" stroke="#000000" d="M673.1636,-480.9538C679.4968,-472.1437 686.1977,-462.822 692.705,-453.7697"/>
<polygon fill="#000000" stroke="#000000" points="695.6155,-455.7171 698.6105,-445.5544 689.9317,-451.6313 695.6155,-455.7171"/>
</g>
<!-- 4 -->
<g id="node5" class="node">
<title>4</title>
<path fill="#39e581" fill-opacity="0.972549" stroke="#000000" d="M287.7774,-320.1005C287.7774,-320.1005 178.0741,-320.1005 178.0741,-320.1005 172.0741,-320.1005 166.0741,-314.1005 166.0741,-308.1005 166.0741,-308.1005 166.0741,-242.6999 166.0741,-242.6999 166.0741,-236.6999 172.0741,-230.6999 178.0741,-230.6999 178.0741,-230.6999 287.7774,-230.6999 287.7774,-230.6999 293.7774,-230.6999 299.7774,-236.6999 299.7774,-242.6999 299.7774,-242.6999 299.7774,-308.1005 299.7774,-308.1005 299.7774,-314.1005 293.7774,-320.1005 287.7774,-320.1005"/>
<text text-anchor="start" x="187.4634" y="-304.8002" font-family="Helvetica,sans-Serif" font-size="14.00" fill="#000000">花瓣宽度 ≤ 1.6</text>
<text text-anchor="start" x="196.5347" y="-290.8002" font-family="Helvetica,sans-Serif" font-size="14.00" fill="#000000">gini = 0.056</text>
<text text-anchor="start" x="191.0967" y="-276.8002" font-family="Helvetica,sans-Serif" font-size="14.00" fill="#000000">samples = 35</text>
<text text-anchor="start" x="180.9727" y="-262.8002" font-family="Helvetica,sans-Serif" font-size="14.00" fill="#000000">value = [0, 34, 1]</text>
<text text-anchor="start" x="174" y="-243.2002" font-family="Helvetica,sans-Serif" font-size="14.00" fill="#000000">class = 变色鸢尾花</text>
</g>
<!-- 3&#45;&gt;4 -->
<g id="edge4" class="edge">
<title>3&#45;&gt;4</title>
<path fill="none" stroke="#000000" d="M414.8708,-366.8842C382.3497,-350.5322 343.1308,-330.8125 309.4448,-313.8748"/>
<polygon fill="#000000" stroke="#000000" points="310.607,-310.5417 300.1005,-309.1764 307.4624,-316.7956 310.607,-310.5417"/>
</g>
<!-- 7 -->
<g id="node8" class="node">
<title>7</title>
<path fill="#8139e5" fill-opacity="0.498039" stroke="#000000" d="M550.7774,-320.1005C550.7774,-320.1005 413.0742,-320.1005 413.0742,-320.1005 407.0742,-320.1005 401.0742,-314.1005 401.0742,-308.1005 401.0742,-308.1005 401.0742,-242.6999 401.0742,-242.6999 401.0742,-236.6999 407.0742,-230.6999 413.0742,-230.6999 413.0742,-230.6999 550.7774,-230.6999 550.7774,-230.6999 556.7774,-230.6999 562.7774,-236.6999 562.7774,-242.6999 562.7774,-242.6999 562.7774,-308.1005 562.7774,-308.1005 562.7774,-314.1005 556.7774,-320.1005 550.7774,-320.1005"/>
<text text-anchor="start" x="432.5703" y="-304.8002" font-family="Helvetica,sans-Serif" font-size="14.00" fill="#000000">花瓣宽度 ≤ 1.55</text>
<text text-anchor="start" x="445.5347" y="-290.8002" font-family="Helvetica,sans-Serif" font-size="14.00" fill="#000000">gini = 0.444</text>
<text text-anchor="start" x="443.9897" y="-276.8002" font-family="Helvetica,sans-Serif" font-size="14.00" fill="#000000">samples = 6</text>
<text text-anchor="start" x="433.8657" y="-262.8002" font-family="Helvetica,sans-Serif" font-size="14.00" fill="#000000">value = [0, 2, 4]</text>
<text text-anchor="start" x="409" y="-243.2002" font-family="Helvetica,sans-Serif" font-size="14.00" fill="#000000">class = 维吉尼亚鸢尾花</text>
</g>
<!-- 3&#45;&gt;7 -->
<g id="edge7" class="edge">
<title>3&#45;&gt;7</title>
<path fill="none" stroke="#000000" d="M481.9258,-355.7538C481.9258,-347.5729 481.9258,-338.951 481.9258,-330.5132"/>
<polygon fill="#000000" stroke="#000000" points="485.4259,-330.3543 481.9258,-320.3543 478.4259,-330.3544 485.4259,-330.3543"/>
</g>
<!-- 5 -->
<g id="node6" class="node">
<title>5</title>
<path fill="#39e581" stroke="#000000" d="M121.7774,-184.8013C121.7774,-184.8013 12.0741,-184.8013 12.0741,-184.8013 6.0741,-184.8013 .0741,-178.8013 .0741,-172.8013 .0741,-172.8013 .0741,-127.5989 .0741,-127.5989 .0741,-121.5989 6.0741,-115.5989 12.0741,-115.5989 12.0741,-115.5989 121.7774,-115.5989 121.7774,-115.5989 127.7774,-115.5989 133.7774,-121.5989 133.7774,-127.5989 133.7774,-127.5989 133.7774,-172.8013 133.7774,-172.8013 133.7774,-178.8013 127.7774,-184.8013 121.7774,-184.8013"/>
<text text-anchor="start" x="38.3208" y="-169.8001" font-family="Helvetica,sans-Serif" font-size="14.00" fill="#000000">gini = 0.0</text>
<text text-anchor="start" x="25.0967" y="-155.8001" font-family="Helvetica,sans-Serif" font-size="14.00" fill="#000000">samples = 34</text>
<text text-anchor="start" x="14.9727" y="-141.8001" font-family="Helvetica,sans-Serif" font-size="14.00" fill="#000000">value = [0, 34, 0]</text>
<text text-anchor="start" x="8" y="-122.2001" font-family="Helvetica,sans-Serif" font-size="14.00" fill="#000000">class = 变色鸢尾花</text>
</g>
<!-- 4&#45;&gt;5 -->
<g id="edge5" class="edge">
<title>4&#45;&gt;5</title>
<path fill="none" stroke="#000000" d="M173.4648,-230.5537C156.3558,-217.6498 137.7921,-203.6487 121.0261,-191.0035"/>
<polygon fill="#000000" stroke="#000000" points="123.0456,-188.1427 112.9542,-184.9155 118.8305,-193.7314 123.0456,-188.1427"/>
</g>
<!-- 6 -->
<g id="node7" class="node">
<title>6</title>
<path fill="#8139e5" stroke="#000000" d="M301.7774,-184.8013C301.7774,-184.8013 164.0742,-184.8013 164.0742,-184.8013 158.0742,-184.8013 152.0742,-178.8013 152.0742,-172.8013 152.0742,-172.8013 152.0742,-127.5989 152.0742,-127.5989 152.0742,-121.5989 158.0742,-115.5989 164.0742,-115.5989 164.0742,-115.5989 301.7774,-115.5989 301.7774,-115.5989 307.7774,-115.5989 313.7774,-121.5989 313.7774,-127.5989 313.7774,-127.5989 313.7774,-172.8013 313.7774,-172.8013 313.7774,-178.8013 307.7774,-184.8013 301.7774,-184.8013"/>
<text text-anchor="start" x="204.3208" y="-169.8001" font-family="Helvetica,sans-Serif" font-size="14.00" fill="#000000">gini = 0.0</text>
<text text-anchor="start" x="194.9897" y="-155.8001" font-family="Helvetica,sans-Serif" font-size="14.00" fill="#000000">samples = 1</text>
<text text-anchor="start" x="184.8657" y="-141.8001" font-family="Helvetica,sans-Serif" font-size="14.00" fill="#000000">value = [0, 0, 1]</text>
<text text-anchor="start" x="160" y="-122.2001" font-family="Helvetica,sans-Serif" font-size="14.00" fill="#000000">class = 维吉尼亚鸢尾花</text>
</g>
<!-- 4&#45;&gt;6 -->
<g id="edge6" class="edge">
<title>4&#45;&gt;6</title>
<path fill="none" stroke="#000000" d="M232.9258,-230.5537C232.9258,-219.0575 232.9258,-206.6904 232.9258,-195.1871"/>
<polygon fill="#000000" stroke="#000000" points="236.4259,-194.9155 232.9258,-184.9155 229.4259,-194.9155 236.4259,-194.9155"/>
</g>
<!-- 8 -->
<g id="node9" class="node">
<title>8</title>
<path fill="#8139e5" stroke="#000000" d="M481.7774,-184.8013C481.7774,-184.8013 344.0742,-184.8013 344.0742,-184.8013 338.0742,-184.8013 332.0742,-178.8013 332.0742,-172.8013 332.0742,-172.8013 332.0742,-127.5989 332.0742,-127.5989 332.0742,-121.5989 338.0742,-115.5989 344.0742,-115.5989 344.0742,-115.5989 481.7774,-115.5989 481.7774,-115.5989 487.7774,-115.5989 493.7774,-121.5989 493.7774,-127.5989 493.7774,-127.5989 493.7774,-172.8013 493.7774,-172.8013 493.7774,-178.8013 487.7774,-184.8013 481.7774,-184.8013"/>
<text text-anchor="start" x="384.3208" y="-169.8001" font-family="Helvetica,sans-Serif" font-size="14.00" fill="#000000">gini = 0.0</text>
<text text-anchor="start" x="374.9897" y="-155.8001" font-family="Helvetica,sans-Serif" font-size="14.00" fill="#000000">samples = 3</text>
<text text-anchor="start" x="364.8657" y="-141.8001" font-family="Helvetica,sans-Serif" font-size="14.00" fill="#000000">value = [0, 0, 3]</text>
<text text-anchor="start" x="340" y="-122.2001" font-family="Helvetica,sans-Serif" font-size="14.00" fill="#000000">class = 维吉尼亚鸢尾花</text>
</g>
<!-- 7&#45;&gt;8 -->
<g id="edge8" class="edge">
<title>7&#45;&gt;8</title>
<path fill="none" stroke="#000000" d="M457.2101,-230.5537C450.6157,-218.5882 443.5014,-205.6794 436.9451,-193.783"/>
<polygon fill="#000000" stroke="#000000" points="439.9501,-191.9842 432.0581,-184.9155 433.8195,-195.3629 439.9501,-191.9842"/>
</g>
<!-- 9 -->
<g id="node10" class="node">
<title>9</title>
<path fill="#39e581" fill-opacity="0.498039" stroke="#000000" d="M633.7774,-194.9004C633.7774,-194.9004 524.0741,-194.9004 524.0741,-194.9004 518.0741,-194.9004 512.0741,-188.9004 512.0741,-182.9004 512.0741,-182.9004 512.0741,-117.4998 512.0741,-117.4998 512.0741,-111.4998 518.0741,-105.4998 524.0741,-105.4998 524.0741,-105.4998 633.7774,-105.4998 633.7774,-105.4998 639.7774,-105.4998 645.7774,-111.4998 645.7774,-117.4998 645.7774,-117.4998 645.7774,-182.9004 645.7774,-182.9004 645.7774,-188.9004 639.7774,-194.9004 633.7774,-194.9004"/>
<text text-anchor="start" x="529.5703" y="-179.6001" font-family="Helvetica,sans-Serif" font-size="14.00" fill="#000000">花瓣长度 ≤ 5.45</text>
<text text-anchor="start" x="542.5347" y="-165.6001" font-family="Helvetica,sans-Serif" font-size="14.00" fill="#000000">gini = 0.444</text>
<text text-anchor="start" x="540.9897" y="-151.6001" font-family="Helvetica,sans-Serif" font-size="14.00" fill="#000000">samples = 3</text>
<text text-anchor="start" x="530.8657" y="-137.6001" font-family="Helvetica,sans-Serif" font-size="14.00" fill="#000000">value = [0, 2, 1]</text>
<text text-anchor="start" x="520" y="-118.0001" font-family="Helvetica,sans-Serif" font-size="14.00" fill="#000000">class = 变色鸢尾花</text>
</g>
<!-- 7&#45;&gt;9 -->
<g id="edge9" class="edge">
<title>7&#45;&gt;9</title>
<path fill="none" stroke="#000000" d="M516.671,-230.5537C523.5665,-221.6536 530.8663,-212.2316 537.9469,-203.0925"/>
<polygon fill="#000000" stroke="#000000" points="540.7393,-205.2029 544.0971,-195.1542 535.2058,-200.9157 540.7393,-205.2029"/>
</g>
<!-- 10 -->
<g id="node11" class="node">
<title>10</title>
<path fill="#39e581" stroke="#000000" d="M550.7774,-69.4012C550.7774,-69.4012 441.0741,-69.4012 441.0741,-69.4012 435.0741,-69.4012 429.0741,-63.4012 429.0741,-57.4012 429.0741,-57.4012 429.0741,-12.1988 429.0741,-12.1988 429.0741,-6.1988 435.0741,-.1988 441.0741,-.1988 441.0741,-.1988 550.7774,-.1988 550.7774,-.1988 556.7774,-.1988 562.7774,-6.1988 562.7774,-12.1988 562.7774,-12.1988 562.7774,-57.4012 562.7774,-57.4012 562.7774,-63.4012 556.7774,-69.4012 550.7774,-69.4012"/>
<text text-anchor="start" x="467.3208" y="-54.4" font-family="Helvetica,sans-Serif" font-size="14.00" fill="#000000">gini = 0.0</text>
<text text-anchor="start" x="457.9897" y="-40.4" font-family="Helvetica,sans-Serif" font-size="14.00" fill="#000000">samples = 2</text>
<text text-anchor="start" x="447.8657" y="-26.4" font-family="Helvetica,sans-Serif" font-size="14.00" fill="#000000">value = [0, 2, 0]</text>
<text text-anchor="start" x="437" y="-6.8" font-family="Helvetica,sans-Serif" font-size="14.00" fill="#000000">class = 变色鸢尾花</text>
</g>
<!-- 9&#45;&gt;10 -->
<g id="edge10" class="edge">
<title>9&#45;&gt;10</title>
<path fill="none" stroke="#000000" d="M546.8358,-105.5834C540.2697,-96.4542 533.3719,-86.8637 526.8478,-77.7928"/>
<polygon fill="#000000" stroke="#000000" points="529.662,-75.7113 520.9816,-69.6366 523.9792,-79.7986 529.662,-75.7113"/>
</g>
<!-- 11 -->
<g id="node12" class="node">
<title>11</title>
<path fill="#8139e5" stroke="#000000" d="M730.7774,-69.4012C730.7774,-69.4012 593.0742,-69.4012 593.0742,-69.4012 587.0742,-69.4012 581.0742,-63.4012 581.0742,-57.4012 581.0742,-57.4012 581.0742,-12.1988 581.0742,-12.1988 581.0742,-6.1988 587.0742,-.1988 593.0742,-.1988 593.0742,-.1988 730.7774,-.1988 730.7774,-.1988 736.7774,-.1988 742.7774,-6.1988 742.7774,-12.1988 742.7774,-12.1988 742.7774,-57.4012 742.7774,-57.4012 742.7774,-63.4012 736.7774,-69.4012 730.7774,-69.4012"/>
<text text-anchor="start" x="633.3208" y="-54.4" font-family="Helvetica,sans-Serif" font-size="14.00" fill="#000000">gini = 0.0</text>
<text text-anchor="start" x="623.9897" y="-40.4" font-family="Helvetica,sans-Serif" font-size="14.00" fill="#000000">samples = 1</text>
<text text-anchor="start" x="613.8657" y="-26.4" font-family="Helvetica,sans-Serif" font-size="14.00" fill="#000000">value = [0, 0, 1]</text>
<text text-anchor="start" x="589" y="-6.8" font-family="Helvetica,sans-Serif" font-size="14.00" fill="#000000">class = 维吉尼亚鸢尾花</text>
</g>
<!-- 9&#45;&gt;11 -->
<g id="edge11" class="edge">
<title>9&#45;&gt;11</title>
<path fill="none" stroke="#000000" d="M611.0157,-105.5834C617.5818,-96.4542 624.4797,-86.8637 631.0038,-77.7928"/>
<polygon fill="#000000" stroke="#000000" points="633.8724,-79.7986 636.87,-69.6366 628.1896,-75.7113 633.8724,-79.7986"/>
</g>
<!-- 13 -->
<g id="node14" class="node">
<title>13</title>
<path fill="#8139e5" fill-opacity="0.498039" stroke="#000000" d="M799.7774,-320.1005C799.7774,-320.1005 662.0742,-320.1005 662.0742,-320.1005 656.0742,-320.1005 650.0742,-314.1005 650.0742,-308.1005 650.0742,-308.1005 650.0742,-242.6999 650.0742,-242.6999 650.0742,-236.6999 656.0742,-230.6999 662.0742,-230.6999 662.0742,-230.6999 799.7774,-230.6999 799.7774,-230.6999 805.7774,-230.6999 811.7774,-236.6999 811.7774,-242.6999 811.7774,-242.6999 811.7774,-308.1005 811.7774,-308.1005 811.7774,-314.1005 805.7774,-320.1005 799.7774,-320.1005"/>
<text text-anchor="start" x="681.5703" y="-304.8002" font-family="Helvetica,sans-Serif" font-size="14.00" fill="#000000">花萼长度 ≤ 5.95</text>
<text text-anchor="start" x="694.5347" y="-290.8002" font-family="Helvetica,sans-Serif" font-size="14.00" fill="#000000">gini = 0.444</text>
<text text-anchor="start" x="692.9897" y="-276.8002" font-family="Helvetica,sans-Serif" font-size="14.00" fill="#000000">samples = 3</text>
<text text-anchor="start" x="682.8657" y="-262.8002" font-family="Helvetica,sans-Serif" font-size="14.00" fill="#000000">value = [0, 1, 2]</text>
<text text-anchor="start" x="658" y="-243.2002" font-family="Helvetica,sans-Serif" font-size="14.00" fill="#000000">class = 维吉尼亚鸢尾花</text>
</g>
<!-- 12&#45;&gt;13 -->
<g id="edge13" class="edge">
<title>12&#45;&gt;13</title>
<path fill="none" stroke="#000000" d="M730.9258,-355.7538C730.9258,-347.5729 730.9258,-338.951 730.9258,-330.5132"/>
<polygon fill="#000000" stroke="#000000" points="734.4259,-330.3543 730.9258,-320.3543 727.4259,-330.3544 734.4259,-330.3543"/>
</g>
<!-- 16 -->
<g id="node17" class="node">
<title>16</title>
<path fill="#8139e5" stroke="#000000" d="M979.7774,-310.0013C979.7774,-310.0013 842.0742,-310.0013 842.0742,-310.0013 836.0742,-310.0013 830.0742,-304.0013 830.0742,-298.0013 830.0742,-298.0013 830.0742,-252.799 830.0742,-252.799 830.0742,-246.799 836.0742,-240.799 842.0742,-240.799 842.0742,-240.799 979.7774,-240.799 979.7774,-240.799 985.7774,-240.799 991.7774,-246.799 991.7774,-252.799 991.7774,-252.799 991.7774,-298.0013 991.7774,-298.0013 991.7774,-304.0013 985.7774,-310.0013 979.7774,-310.0013"/>
<text text-anchor="start" x="882.3208" y="-295.0002" font-family="Helvetica,sans-Serif" font-size="14.00" fill="#000000">gini = 0.0</text>
<text text-anchor="start" x="869.0967" y="-281.0002" font-family="Helvetica,sans-Serif" font-size="14.00" fill="#000000">samples = 30</text>
<text text-anchor="start" x="858.9727" y="-267.0002" font-family="Helvetica,sans-Serif" font-size="14.00" fill="#000000">value = [0, 0, 30]</text>
<text text-anchor="start" x="838" y="-247.4001" font-family="Helvetica,sans-Serif" font-size="14.00" fill="#000000">class = 维吉尼亚鸢尾花</text>
</g>
<!-- 12&#45;&gt;16 -->
<g id="edge16" class="edge">
<title>12&#45;&gt;16</title>
<path fill="none" stroke="#000000" d="M795.1476,-355.9304C813.9718,-342.8371 834.4392,-328.6009 852.8568,-315.7904"/>
<polygon fill="#000000" stroke="#000000" points="854.9505,-318.5975 861.1614,-310.014 850.9534,-312.8509 854.9505,-318.5975"/>
</g>
<!-- 14 -->
<g id="node15" class="node">
<title>14</title>
<path fill="#39e581" stroke="#000000" d="M785.7774,-184.8013C785.7774,-184.8013 676.0741,-184.8013 676.0741,-184.8013 670.0741,-184.8013 664.0741,-178.8013 664.0741,-172.8013 664.0741,-172.8013 664.0741,-127.5989 664.0741,-127.5989 664.0741,-121.5989 670.0741,-115.5989 676.0741,-115.5989 676.0741,-115.5989 785.7774,-115.5989 785.7774,-115.5989 791.7774,-115.5989 797.7774,-121.5989 797.7774,-127.5989 797.7774,-127.5989 797.7774,-172.8013 797.7774,-172.8013 797.7774,-178.8013 791.7774,-184.8013 785.7774,-184.8013"/>
<text text-anchor="start" x="702.3208" y="-169.8001" font-family="Helvetica,sans-Serif" font-size="14.00" fill="#000000">gini = 0.0</text>
<text text-anchor="start" x="692.9897" y="-155.8001" font-family="Helvetica,sans-Serif" font-size="14.00" fill="#000000">samples = 1</text>
<text text-anchor="start" x="682.8657" y="-141.8001" font-family="Helvetica,sans-Serif" font-size="14.00" fill="#000000">value = [0, 1, 0]</text>
<text text-anchor="start" x="672" y="-122.2001" font-family="Helvetica,sans-Serif" font-size="14.00" fill="#000000">class = 变色鸢尾花</text>
</g>
<!-- 13&#45;&gt;14 -->
<g id="edge14" class="edge">
<title>13&#45;&gt;14</title>
<path fill="none" stroke="#000000" d="M730.9258,-230.5537C730.9258,-219.0575 730.9258,-206.6904 730.9258,-195.1871"/>
<polygon fill="#000000" stroke="#000000" points="734.4259,-194.9155 730.9258,-184.9155 727.4259,-194.9155 734.4259,-194.9155"/>
</g>
<!-- 15 -->
<g id="node16" class="node">
<title>15</title>
<path fill="#8139e5" stroke="#000000" d="M965.7774,-184.8013C965.7774,-184.8013 828.0742,-184.8013 828.0742,-184.8013 822.0742,-184.8013 816.0742,-178.8013 816.0742,-172.8013 816.0742,-172.8013 816.0742,-127.5989 816.0742,-127.5989 816.0742,-121.5989 822.0742,-115.5989 828.0742,-115.5989 828.0742,-115.5989 965.7774,-115.5989 965.7774,-115.5989 971.7774,-115.5989 977.7774,-121.5989 977.7774,-127.5989 977.7774,-127.5989 977.7774,-172.8013 977.7774,-172.8013 977.7774,-178.8013 971.7774,-184.8013 965.7774,-184.8013"/>
<text text-anchor="start" x="868.3208" y="-169.8001" font-family="Helvetica,sans-Serif" font-size="14.00" fill="#000000">gini = 0.0</text>
<text text-anchor="start" x="858.9897" y="-155.8001" font-family="Helvetica,sans-Serif" font-size="14.00" fill="#000000">samples = 2</text>
<text text-anchor="start" x="848.8657" y="-141.8001" font-family="Helvetica,sans-Serif" font-size="14.00" fill="#000000">value = [0, 0, 2]</text>
<text text-anchor="start" x="824" y="-122.2001" font-family="Helvetica,sans-Serif" font-size="14.00" fill="#000000">class = 维吉尼亚鸢尾花</text>
</g>
<!-- 13&#45;&gt;15 -->
<g id="edge15" class="edge">
<title>13&#45;&gt;15</title>
<path fill="none" stroke="#000000" d="M790.3867,-230.5537C807.4957,-217.6498 826.0594,-203.6487 842.8254,-191.0035"/>
<polygon fill="#000000" stroke="#000000" points="845.0211,-193.7314 850.8974,-184.9155 840.806,-188.1427 845.0211,-193.7314"/>
</g>
</g>
</svg>
